REM DIRINDEX 1\2\5,1\2\6,1\3\7,1\3\8,1\4\9,1\4\10
REM DIRNAME cjc079,folder01,folder02,folder03,folder04,folder05,folder06,folder07,folder08,folder09
TITLE ""
FILE "Track16.mp3" MP3
  TRACK 01 AUDIO
    TITLE "8:cjc079_0419"
    INDEX 01 00:00:00
  TRACK 02 AUDIO
    TITLE "8:cjc079_0420"
    INDEX 01 00:02:14
  TRACK 03 AUDIO
    TITLE "7:cjc079_0421"
    INDEX 01 00:03:63
  TRACK 04 AUDIO
    TITLE "0:"
    INDEX 01 00:04:74
  TRACK 05 AUDIO
    TITLE "7:cjc079_0422"
    INDEX 01 00:05:46
  TRACK 06 AUDIO
    TITLE "0:"
    INDEX 01 00:06:57
  TRACK 07 AUDIO
    TITLE "7:cjc079_0423"
    INDEX 01 00:08:32
  TRACK 08 AUDIO
    TITLE "0:"
    INDEX 01 00:09:45
  TRACK 09 AUDIO
    TITLE "7:cjc079_0424"
    INDEX 01 00:10:19
  TRACK 10 AUDIO
    TITLE "0:"
    INDEX 01 00:11:35
  TRACK 11 AUDIO
    TITLE "7:cjc079_0425"
    INDEX 01 00:13:12
  TRACK 12 AUDIO
    TITLE "0:"
    INDEX 01 00:14:35
  TRACK 13 AUDIO
    TITLE "7:cjc079_0426"
    INDEX 01 00:15:19
  TRACK 14 AUDIO
    TITLE "0:"
    INDEX 01 00:16:42
  TRACK 15 AUDIO
    TITLE "7:cjc079_0427"
    INDEX 01 00:18:27
  TRACK 16 AUDIO
    TITLE "0:"
    INDEX 01 00:19:54
  TRACK 17 AUDIO
    TITLE "7:cjc079_0428"
    INDEX 01 00:20:32
  TRACK 18 AUDIO
    TITLE "0:"
    INDEX 01 00:21:58
  TRACK 19 AUDIO
    TITLE "8:cjc079_0429"
    INDEX 01 00:23:34
  TRACK 20 AUDIO
    TITLE "7:cjc079_0430"
    INDEX 01 00:25:21
  TRACK 21 AUDIO
    TITLE "0:"
    INDEX 01 00:26:42
  TRACK 22 AUDIO
    TITLE "7:cjc079_0431"
    INDEX 01 00:27:18
  TRACK 23 AUDIO
    TITLE "0:"
    INDEX 01 00:28:39
  TRACK 24 AUDIO
    TITLE "7:cjc079_0432"
    INDEX 01 00:30:18
  TRACK 25 AUDIO
    TITLE "0:"
    INDEX 01 00:31:43
  TRACK 26 AUDIO
    TITLE "7:cjc079_0433"
    INDEX 01 00:32:19
  TRACK 27 AUDIO
    TITLE "0:"
    INDEX 01 00:33:42
  TRACK 28 AUDIO
    TITLE "7:cjc079_0434"
    INDEX 01 00:35:14
  TRACK 29 AUDIO
    TITLE "0:"
    INDEX 01 00:36:27
  TRACK 30 AUDIO
    TITLE "7:cjc079_0435"
    INDEX 01 00:36:74
  TRACK 31 AUDIO
    TITLE "0:"
    INDEX 01 00:38:12
  TRACK 32 AUDIO
    TITLE "7:cjc079_0436"
    INDEX 01 00:39:66
  TRACK 33 AUDIO
    TITLE "0:"
    INDEX 01 00:41:26
  TRACK 34 AUDIO
    TITLE "7:cjc079_0437"
    INDEX 01 00:42:00
  TRACK 35 AUDIO
    TITLE "0:"
    INDEX 01 00:43:35
  TRACK 36 AUDIO
    TITLE "8:cjc079_0438"
    INDEX 01 00:45:08
  TRACK 37 AUDIO
    TITLE "7:cjc079_0439"
    INDEX 01 00:46:70
  TRACK 38 AUDIO
    TITLE "0:"
    INDEX 01 00:48:12
  TRACK 39 AUDIO
    TITLE "7:cjc079_0440"
    INDEX 01 00:48:61
  TRACK 40 AUDIO
    TITLE "0:"
    INDEX 01 00:50:03
  TRACK 41 AUDIO
    TITLE "7:cjc079_0441"
    INDEX 01 00:51:54
  TRACK 42 AUDIO
    TITLE "0:"
    INDEX 01 00:52:69
  TRACK 43 AUDIO
    TITLE "7:cjc079_0442"
    INDEX 01 00:53:45
  TRACK 44 AUDIO
    TITLE "0:"
    INDEX 01 00:54:60
  TRACK 45 AUDIO
    TITLE "7:cjc079_0443"
    INDEX 01 00:56:37
  TRACK 46 AUDIO
    TITLE "0:"
    INDEX 01 00:57:48
  TRACK 47 AUDIO
    TITLE "7:cjc079_0444"
    INDEX 01 00:58:22
  TRACK 48 AUDIO
    TITLE "0:"
    INDEX 01 00:59:34
  TRACK 49 AUDIO
    TITLE "7:cjc079_0445"
    INDEX 01 01:01:05
  TRACK 50 AUDIO
    TITLE "0:"
    INDEX 01 01:02:28
  TRACK 51 AUDIO
    TITLE "7:cjc079_0446"
    INDEX 01 01:02:71
  TRACK 52 AUDIO
    TITLE "0:"
    INDEX 01 01:04:19
  TRACK 53 AUDIO
    TITLE "8:cjc079_0447"
    INDEX 01 01:05:68
  TRACK 54 AUDIO
    TITLE "7:cjc079_0448"
    INDEX 01 01:07:59
  TRACK 55 AUDIO
    TITLE "0:"
    INDEX 01 01:09:01
  TRACK 56 AUDIO
    TITLE "7:cjc079_0449"
    INDEX 01 01:09:50
  TRACK 57 AUDIO
    TITLE "0:"
    INDEX 01 01:10:67
  TRACK 58 AUDIO
    TITLE "7:cjc079_0450"
    INDEX 01 01:12:44
  TRACK 59 AUDIO
    TITLE "0:"
    INDEX 01 01:13:63
  TRACK 60 AUDIO
    TITLE "7:cjc079_0451"
    INDEX 01 01:14:41
  TRACK 61 AUDIO
    TITLE "0:"
    INDEX 01 01:15:62
  TRACK 62 AUDIO
    TITLE "7:cjc079_0452"
    INDEX 01 01:17:37
  TRACK 63 AUDIO
    TITLE "0:"
    INDEX 01 01:18:58
  TRACK 64 AUDIO
    TITLE "7:cjc079_0453"
    INDEX 01 01:19:30
  TRACK 65 AUDIO
    TITLE "0:"
    INDEX 01 01:20:49
  TRACK 66 AUDIO
    TITLE "7:cjc079_0454"
    INDEX 01 01:22:25
  TRACK 67 AUDIO
    TITLE "0:"
    INDEX 01 01:23:50
  TRACK 68 AUDIO
    TITLE "7:cjc079_0455"
    INDEX 01 01:24:26
  TRACK 69 AUDIO
    TITLE "0:"
    INDEX 01 01:25:51
  TRACK 70 AUDIO
    TITLE "8:cjc079_0456"
    INDEX 01 01:27:24
  TRACK 71 AUDIO
    TITLE "7:cjc079_0457"
    INDEX 01 01:29:15
  TRACK 72 AUDIO
    TITLE "0:"
    INDEX 01 01:30:32
  TRACK 73 AUDIO
    TITLE "7:cjc079_0458"
    INDEX 01 01:31:06
  TRACK 74 AUDIO
    TITLE "0:"
    INDEX 01 01:32:23
  TRACK 75 AUDIO
    TITLE "7:cjc079_0459"
    INDEX 01 01:33:74
  TRACK 76 AUDIO
    TITLE "0:"
    INDEX 01 01:35:18
  TRACK 77 AUDIO
    TITLE "7:cjc079_0460"
    INDEX 01 01:35:65
  TRACK 78 AUDIO
    TITLE "0:"
    INDEX 01 01:37:11
  TRACK 79 AUDIO
    TITLE "7:cjc079_0461"
    INDEX 01 01:38:59
  TRACK 80 AUDIO
    TITLE "0:"
    INDEX 01 01:40:01
  TRACK 81 AUDIO
    TITLE "7:cjc079_0462"
    INDEX 01 01:40:48
  TRACK 82 AUDIO
    TITLE "0:"
    INDEX 01 01:41:65
  TRACK 83 AUDIO
    TITLE "7:cjc079_0463"
    INDEX 01 01:43:37
  TRACK 84 AUDIO
    TITLE "0:"
    INDEX 01 01:44:56
  TRACK 85 AUDIO
    TITLE "7:cjc079_0464"
    INDEX 01 01:45:26
  TRACK 86 AUDIO
    TITLE "0:"
    INDEX 01 01:46:47
